<?xml version="1.0" encoding="UTF-8" standalone="no" ?>
<!DOCTYPE svg PUBLIC "-//W3C//DTD SVG 1.1//EN" "http://www.w3.org/Graphics/SVG/1.1/DTD/svg11.dtd">
<svg xmlns="http://www.w3.org/2000/svg" xmlns:xlink="http://www.w3.org/1999/xlink" version="1.1" width="456" height="456" viewBox="0 0 456 456" xml:space="preserve">
<desc>Created with Fabric.js 4.6.0</desc>
<defs>
</defs>
<g transform="matrix(1 0 0 1 733.07 228.72)" id="6SojiF40czeGgAHa3QzIV"  >
<g style="" vector-effect="non-scaling-stroke"   >
		<g transform="matrix(1 0 0 1 -122.43 44.25)" id="yutmWs-M6nYzP6VSk-b9G"  >
<path style="stroke: none; stroke-width: 0.84; stroke-dasharray: none; stroke-linecap: butt; stroke-dashoffset: 0; stroke-linejoin: round; stroke-miterlimit: 2; fill: rgb(255,255,255); fill-rule: nonzero; opacity: 1;" vector-effect="non-scaling-stroke"  transform=" translate(-105.57, -272.25)" d="M 105.50037 281.60863 C 102.79744000000001 281.60863 100.49946 280.70821 98.60724300000001 278.90654 C 96.71502900000002 277.05876 95.76934200000001 274.86473 95.76934200000001 272.32445 C 95.76934200000001 269.73723 96.71502900000002 267.52056 98.60724300000001 265.67278 C 100.49946000000001 263.825 102.79744000000001 262.90111 105.50037 262.90111 C 108.24856 262.90111 110.56835000000001 263.825 112.46056 265.67278 C 114.39805 267.52056 115.36637 269.73723 115.36637 272.32445 C 115.36637 274.86473 114.39805 277.05876 112.46056 278.90654 C 110.56835 280.70821 108.24856 281.60863 105.50037 281.60863 z" stroke-linecap="round" />
</g>
		<g transform="matrix(1 0 0 1 -55.53 2.4)" id="B-O64HJCVBSa-SHfmDZ5-"  >
<path style="stroke: none; stroke-width: 0.84; stroke-dasharray: none; stroke-linecap: butt; stroke-dashoffset: 0; stroke-linejoin: round; stroke-miterlimit: 2; fill: rgb(255,255,255); fill-rule: nonzero; opacity: 1;" vector-effect="non-scaling-stroke"  transform=" translate(-172.47, -230.4)" d="M 213.56111 280.08446 L 195.99044 280.08446 L 149.69953 207.0544 C 148.52832 205.20662 147.55916000000002 203.28924999999998 146.79372 201.30313999999998 L 146.38794000000001 201.30313999999998 C 146.74845000000002 203.42842 146.92870000000002 207.97829 146.92870000000002 214.95273999999998 L 146.92870000000002 280.08446 L 131.38521000000003 280.08446 L 131.38521000000003 180.72436999999996 L 150.10446000000002 180.72436999999996 L 194.84186000000003 252.02234999999996 C 196.73408000000003 254.97929999999997 197.95056000000002 257.01151999999996 198.49131000000003 258.11985999999996 L 198.76127000000002 258.11985999999996 C 198.31106000000003 255.48735999999997 198.08554000000004 251.02970999999997 198.08554000000004 244.74692999999996 L 198.08554000000004 180.72436999999996 L 213.56111000000004 180.72436999999996 z" stroke-linecap="round" />
</g>
		<g transform="matrix(1 0 0 1 34.05 2.4)" id="5JZl80qtNgLAMCPqJAqmY"  >
<path style="stroke: none; stroke-width: 0.84; stroke-dasharray: none; stroke-linecap: butt; stroke-dashoffset: 0; stroke-linejoin: round; stroke-miterlimit: 2; fill: rgb(255,255,255); fill-rule: nonzero; opacity: 1;" vector-effect="non-scaling-stroke"  transform=" translate(-262.05, -230.4)" d="M 289.25134 280.08446 L 234.85082000000003 280.08446 L 234.85082000000003 180.72436999999996 L 287.08917 180.72436999999996 L 287.08917 194.72105999999997 L 250.93506000000002 194.72105999999997 L 250.93506000000002 222.85190999999998 L 284.25127000000003 222.85190999999998 L 284.25127000000003 236.77900999999997 L 250.93506000000002 236.77900999999997 L 250.93506000000002 266.15736 L 289.25134 266.15736 z" stroke-linecap="round" />
</g>
		<g transform="matrix(1 0 0 1 102.71 2.4)" id="5d4_WqLyZ4trTJd-PwaOC"  >
<path style="stroke: none; stroke-width: 0.84; stroke-dasharray: none; stroke-linecap: butt; stroke-dashoffset: 0; stroke-linejoin: round; stroke-miterlimit: 2; fill: rgb(255,255,255); fill-rule: nonzero; opacity: 1;" vector-effect="non-scaling-stroke"  transform=" translate(-330.71, -230.4)" d="M 366.56466 194.72106 L 338.7222 194.72106 L 338.7222 280.08446 L 322.63797 280.08446 L 322.63797 194.72105999999997 L 294.86342 194.72105999999997 L 294.86342 180.72436999999996 L 366.56466 180.72436999999996 z" stroke-linecap="round" />
</g>
</g>
</g>
<g transform="matrix(1 0 0 1 228 228)" style="" id="sufYp6e1Fnp4Wn_ciUup0"  >
		<text xml:space="preserve" font-family="Open Sans" font-size="43" font-style="normal" font-weight="600" letter-spacing="0.086" line-height="1" style="stroke: none; stroke-width: 1; stroke-dasharray: none; stroke-linecap: butt; stroke-dashoffset: 0; stroke-linejoin: miter; stroke-miterlimit: 4; fill: rgb(255,255,255); fill-rule: nonzero; opacity: 1; white-space: pre;" ><tspan x="-57.5" y="12.8" >.</tspan><tspan x="-45.64" y="12.8" >N</tspan><tspan x="-11.87" y="12.8" >A</tspan><tspan x="16.64" y="12.8" >P</tspan><tspan x="43.16" y="12.8" >I</tspan></text>
</g>
</svg>